<?xml version="1.0" standalone="no"?>
<!DOCTYPE svg PUBLIC "-//W3C//DTD SVG 20010904//EN"
 "http://www.w3.org/TR/2001/REC-SVG-20010904/DTD/svg10.dtd">
<svg version="1.0" xmlns="http://www.w3.org/2000/svg"
 width="260.000000pt" height="260.000000pt" viewBox="0 0 260.000000 260.000000"
 preserveAspectRatio="xMidYMid meet">
<metadata>
Created by potrace 1.14, written by Peter Selinger 2001-2017
</metadata>
<g transform="translate(0.000000,260.000000) scale(0.100000,-0.100000)"
fill="#000000" stroke="none">
<path d="M1296 1941 c-3 -5 2 -15 12 -22 15 -12 16 -12 5 2 -7 9 -10 19 -6 22
3 4 4 7 0 7 -3 0 -8 -4 -11 -9z"/>
<path d="M1986 1938 c3 -5 10 -6 15 -3 13 9 11 12 -6 12 -8 0 -12 -4 -9 -9z"/>
<path d="M1347 1922 c-10 -10 -14 -22 -10 -25 3 -4 -6 -6 -20 -5 -15 1 -27 6
-27 11 0 5 -6 5 -13 -1 -7 -6 -37 -12 -67 -14 l-55 -3 1 -41 c0 -37 -2 -41
-22 -38 -13 1 -28 5 -35 10 -8 5 -9 3 -4 -6 6 -10 4 -12 -8 -7 -13 5 -17 1
-17 -17 0 -19 -5 -23 -27 -22 -16 1 -35 5 -43 10 -12 7 -13 7 -2 -5 7 -8 25
-14 40 -14 20 -1 27 -6 27 -20 0 -24 -25 -27 -43 -5 -8 8 -11 10 -8 3 4 -6 2
-14 -4 -18 -5 -3 -10 -2 -10 3 0 6 -6 12 -13 15 -9 3 -12 -19 -12 -97 1 -56 4
-107 8 -113 3 -5 28 -9 54 -8 l48 1 3 39 c2 22 9 46 15 54 9 12 9 13 -1 7 -10
-6 -12 2 -11 36 2 42 3 43 36 43 19 0 38 -7 43 -15 9 -13 10 -13 11 0 1 8 0
22 -1 29 -1 8 6 21 17 29 17 13 17 14 -4 8 -16 -5 -21 -3 -19 8 3 23 10 27 55
29 29 2 41 -1 41 -11 0 -7 -5 -10 -12 -6 -7 5 -8 3 -3 -6 6 -10 12 -8 27 10
14 17 21 20 31 11 8 -6 17 -8 21 -4 3 4 14 8 24 9 13 2 11 -2 -7 -15 -18 -14
-21 -20 -11 -26 8 -5 11 -4 6 3 -3 6 3 13 14 17 11 3 20 11 20 16 0 6 5 7 12
3 7 -5 5 -11 -7 -21 -11 -7 -14 -13 -7 -13 6 0 18 10 26 22 9 12 16 18 17 13
1 -6 2 -23 3 -40 2 -16 4 -35 4 -41 1 -6 20 -11 44 -10 41 1 42 0 43 -31 0
-19 -5 -35 -13 -38 -11 -4 -12 -8 -3 -19 16 -19 22 -56 10 -56 -6 0 -7 -4 -4
-10 13 -22 13 -49 -1 -54 -9 -4 -13 -13 -10 -23 5 -15 0 -18 -38 -17 -44 2
-50 -5 -32 -34 4 -7 5 -16 1 -20 -4 -4 -10 -1 -12 6 -3 6 -9 12 -14 12 -5 0
-4 -9 3 -19 7 -11 17 -17 23 -14 5 4 7 2 2 -2 -4 -5 -16 -10 -27 -12 -14 -2
-18 2 -14 15 5 15 4 15 -8 1 -14 -17 -92 -20 -117 -5 -9 6 -12 5 -7 -2 4 -7
-4 -10 -21 -10 -64 1 -73 -2 -73 -23 0 -13 -4 -18 -12 -13 -9 5 -9 3 1 -9 7
-9 11 -28 9 -42 -5 -24 -3 -25 46 -26 28 -1 59 0 70 1 10 1 23 -4 27 -12 6 -9
9 -9 9 -1 0 6 13 11 30 11 30 -1 41 -13 18 -20 -14 -5 -1 -28 15 -27 9 0 9 2
0 6 -10 3 -10 9 0 24 6 10 15 19 19 19 8 0 3 -53 -7 -72 -4 -7 0 -4 9 6 8 10
13 23 10 27 -3 5 0 17 5 26 6 10 11 14 12 8 5 -42 5 -64 -1 -60 -4 2 -7 -2 -7
-9 0 -14 4 -15 62 -18 38 -2 40 -4 40 -35 0 -23 -5 -33 -15 -33 -13 0 -13 -2
-1 -9 16 -10 23 -71 9 -71 -5 0 -5 -8 -1 -17 5 -10 8 -25 7 -33 -1 -8 -2 -23
-3 -32 0 -10 -6 -18 -12 -18 -5 0 -7 6 -3 13 5 7 1 7 -10 -2 -14 -12 -19 -12
-26 -2 -6 11 -9 11 -12 0 -4 -11 -9 -12 -26 -2 -16 9 -23 10 -28 1 -4 -6 -3
-8 4 -4 14 9 25 -11 28 -50 3 -43 -23 -54 -50 -22 -17 21 -18 21 -12 3 8 -28
-29 -31 -48 -4 -12 17 -14 18 -20 4 -3 -9 -2 -13 4 -10 6 3 10 2 10 -2 0 -8
-25 -8 -118 -4 -7 1 -10 6 -7 11 3 6 2 10 -4 10 -6 0 -8 7 -5 15 6 14 8 13 20
-2 10 -15 15 -16 26 -5 11 11 10 12 -6 6 -11 -4 -17 -3 -14 2 4 5 -12 22 -35
38 -22 17 -37 24 -33 18 4 -7 1 -12 -9 -12 -10 0 -13 5 -9 13 5 8 2 8 -9 -2
-20 -16 -23 -2 -4 18 7 8 7 11 1 8 -15 -9 -15 43 0 62 8 12 8 13 -1 7 -9 -5
-13 -1 -13 13 0 10 6 22 13 24 10 4 10 6 0 6 -7 1 -13 8 -13 16 0 13 -25 21
-53 16 -4 -1 -25 -2 -47 -3 -22 -1 -40 -5 -40 -10 0 -4 5 -7 12 -5 8 1 12 -24
13 -83 2 -47 0 -79 -2 -72 -6 16 -20 16 -20 -1 0 -16 5 -17 67 -21 33 -2 46
-8 48 -21 2 -10 0 -15 -6 -11 -6 3 -14 2 -17 -4 -4 -6 -1 -9 7 -8 8 2 14 -8
16 -25 3 -24 7 -26 32 -22 16 3 32 0 36 -6 4 -8 9 -7 15 2 6 9 9 -3 9 -33 0
-27 4 -48 10 -48 5 0 7 -8 4 -17 -5 -14 -4 -15 4 -4 5 7 15 10 21 7 6 -4 11
-4 11 1 0 4 15 8 34 8 19 0 32 -3 30 -6 -2 -4 3 -9 11 -12 9 -4 12 -1 9 7 -5
14 23 15 44 2 7 -4 12 -2 12 6 0 9 3 9 10 -2 9 -13 10 -13 11 0 0 10 3 8 9 -5
7 -15 9 -16 9 -4 1 9 9 16 19 16 38 0 41 3 39 36 -2 18 3 39 10 46 8 7 13 8
13 1 0 -7 6 -8 18 -1 13 7 22 7 29 0 8 -8 13 -7 18 2 6 8 4 10 -6 5 -8 -4 -5
0 5 8 11 9 15 16 10 16 -6 0 -10 14 -10 31 0 24 3 29 18 26 10 -3 18 -2 18 2
0 4 7 8 15 8 8 0 12 -3 10 -7 -2 -3 6 -12 18 -20 20 -12 21 -12 8 3 -10 13
-11 20 -2 30 6 8 8 17 4 20 -3 4 -2 7 3 7 6 0 15 -5 22 -12 9 -9 15 -9 25 1
10 10 8 11 -8 5 -16 -6 -18 -5 -8 6 20 21 45 22 38 1 -3 -9 2 -26 11 -37 8
-10 13 -13 9 -7 -4 9 -1 11 9 7 9 -3 13 -11 10 -18 -3 -6 0 -4 8 4 7 9 21 14
31 12 13 -3 17 -14 17 -53 0 -46 1 -49 19 -39 14 7 21 6 24 -3 4 -9 7 -9 14 0
15 21 30 -1 29 -42 l-1 -40 62 0 c34 1 59 -3 57 -7 -3 -4 2 -5 11 -1 34 12
120 10 145 -5 23 -14 24 -14 11 1 -10 13 -10 17 -1 17 8 0 11 9 8 25 -3 14 -2
25 2 25 4 0 7 8 6 17 -1 12 7 18 29 19 55 2 56 2 50 34 -3 17 -1 30 5 30 5 0
10 8 10 18 1 15 2 15 17 -3 13 -16 15 -17 10 -2 -5 14 -2 16 18 13 17 -3 25 0
25 9 0 8 8 19 18 25 12 8 12 10 2 7 -14 -4 -16 12 -15 117 l0 121 -25 3 c-62
7 -66 10 -65 47 2 42 -2 45 -50 47 -20 1 -39 6 -42 11 -4 6 0 8 8 5 8 -3 22 6
34 21 13 18 14 22 3 13 -9 -7 -18 -9 -20 -5 -3 4 -3 2 -2 -4 2 -7 -1 -13 -5
-13 -11 0 -23 30 -13 31 4 0 18 2 32 4 37 4 44 -5 21 -29 -19 -20 -19 -22 -2
-22 12 0 17 5 13 15 -3 8 -1 12 5 8 6 -4 10 3 9 16 -1 16 4 21 19 20 11 -1 14
0 7 3 -6 3 -10 10 -6 15 3 5 -1 9 -8 9 -9 0 -9 3 2 10 10 6 11 10 3 10 -7 0
-13 5 -13 11 0 5 5 7 12 3 8 -5 9 -2 5 9 -5 14 1 17 39 17 38 0 45 3 40 16 -5
12 -2 15 11 10 16 -5 16 -4 3 6 -12 10 -15 34 -14 108 2 123 2 122 16 114 7
-4 8 -3 4 5 -4 6 -12 9 -17 6 -5 -4 -9 1 -9 10 0 10 5 13 13 9 6 -4 8 -3 4 1
-10 12 -38 15 -31 4 10 -16 -8 -9 -22 9 -12 15 -13 15 -8 0 4 -11 1 -16 -10
-14 -21 3 -29 12 -33 37 -2 14 1 18 9 13 8 -5 6 2 -3 16 -12 19 -25 25 -52 25
-33 -1 -36 2 -39 32 -2 18 1 33 6 33 6 0 6 4 0 10 -6 6 -36 11 -67 11 -31 1
-55 4 -52 8 2 4 -2 8 -10 8 -8 0 -12 -4 -9 -9 3 -4 -2 -8 -11 -8 -9 0 -14 4
-11 8 3 5 -1 9 -9 9 -8 0 -12 -4 -9 -9 8 -13 -20 -9 -35 5 -11 10 -13 10 -7 0
5 -10 -4 -13 -34 -13 -29 0 -39 4 -34 12 4 6 3 8 -3 5 -6 -4 -9 -21 -8 -39 2
-18 -2 -39 -8 -47 -9 -12 -9 -13 1 -7 6 4 12 3 12 -2 0 -6 -20 -9 -45 -8 -25
1 -45 -3 -46 -9 0 -5 -1 -25 -2 -44 -2 -24 -7 -35 -19 -37 -11 -1 -18 4 -19
14 0 14 -2 13 -9 -3 -5 -11 -9 -14 -9 -7 -1 9 -5 10 -20 0 -10 -6 -17 -18 -13
-26 4 -12 1 -12 -19 -2 -24 11 -24 11 -3 -7 23 -21 28 -94 6 -99 -7 -1 -8 0
-2 3 8 3 7 9 -1 19 -6 8 -7 14 -2 14 5 0 9 9 9 19 0 15 -4 17 -17 11 -10 -6
-21 -5 -29 3 -12 10 -12 9 -2 -4 10 -13 10 -18 0 -22 -9 -3 -13 7 -13 34 0 42
9 52 18 19 3 -11 11 -20 19 -19 10 0 10 2 1 6 -7 2 -13 11 -13 19 0 8 -8 18
-17 21 -10 4 -24 14 -31 22 -9 12 -12 12 -10 2 2 -7 -5 -15 -14 -16 -20 -4
-24 11 -5 18 9 4 9 6 -1 6 -7 1 -15 -6 -18 -14 -4 -8 -10 -12 -16 -9 -5 3 -4
11 3 20 9 11 9 14 -1 14 -9 0 -9 4 1 17 12 14 12 15 0 9 -10 -6 -12 -4 -7 11
5 17 2 19 -26 18 -52 -2 -66 9 -61 50 3 32 1 35 -24 36 -16 1 -34 1 -42 0 -7
-2 -20 0 -28 4 -14 5 -13 8 2 25 10 11 16 20 13 20 -3 0 -12 -8 -21 -18z m573
-142 c-13 -8 -12 -10 3 -10 9 0 17 5 17 11 0 5 5 7 10 4 6 -4 8 -12 4 -18 -3
-7 1 -4 9 6 17 21 28 22 21 3 -9 -25 19 -31 34 -8 8 12 20 22 26 22 6 0 4 -5
-4 -10 -13 -8 -12 -10 3 -10 9 0 17 4 17 8 0 5 7 9 15 9 13 0 13 -2 0 -17 -13
-14 -13 -17 0 -17 8 0 13 3 11 6 -6 10 18 26 38 26 13 0 20 -8 21 -22 1 -12
-2 -20 -7 -17 -4 3 -8 0 -8 -5 0 -6 5 -11 10 -11 6 0 10 -6 10 -14 0 -8 7 -17
16 -20 8 -3 12 -11 8 -17 -4 -7 -3 -9 4 -5 5 3 13 0 16 -6 3 -7 3 -2 -1 12 -5
23 -5 24 12 10 11 -9 16 -10 11 -2 -4 6 -2 12 3 12 6 0 11 -2 11 -4 0 -2 3
-12 6 -20 5 -12 2 -15 -12 -10 -18 5 -17 4 1 -10 17 -14 18 -19 7 -37 -8 -12
-11 -24 -8 -27 3 -3 6 1 6 8 0 7 3 10 6 7 4 -4 1 -14 -7 -24 -8 -9 -9 -14 -3
-10 7 4 10 -15 10 -58 -1 -36 -2 -65 -4 -65 -1 0 -7 10 -13 23 -9 21 -9 21 -5
-3 5 -24 3 -26 -29 -22 -37 4 -37 4 -39 -52 -1 -22 -6 -30 -23 -32 -17 -3 -21
0 -17 14 5 16 5 16 -9 0 -22 -28 -31 -21 -13 10 l17 27 -24 -29 c-16 -18 -27
-24 -31 -17 -4 6 -13 11 -19 11 -7 0 -6 -4 3 -10 13 -9 13 -10 0 -10 -9 0 -22
6 -29 13 -11 10 -12 9 -6 -1 5 -10 0 -13 -21 -10 -18 2 -28 8 -26 16 1 8 -2
11 -8 7 -6 -3 -8 -11 -5 -16 4 -5 -7 -9 -24 -9 -22 0 -30 -5 -29 -17 0 -10 0
-22 -2 -28 -1 -5 -2 -22 -1 -37 1 -27 3 -28 57 -28 41 0 53 -3 48 -12 -6 -10
-4 -10 7 0 15 14 33 16 24 3 -3 -5 -1 -13 5 -16 6 -4 9 -1 8 7 -2 10 13 13 58
14 60 1 61 0 60 -25 -1 -14 -5 -32 -10 -40 -7 -10 -6 -12 4 -6 10 6 12 4 7 -7
-4 -13 0 -15 24 -11 19 3 29 0 29 -9 0 -8 3 -9 8 -3 17 23 29 12 29 -25 0 -32
-3 -38 -14 -29 -18 16 -16 4 3 -15 14 -15 14 -17 0 -32 -20 -19 -21 -31 -2
-14 12 9 15 7 13 -12 -1 -13 -8 -29 -17 -36 -13 -12 -13 -13 2 -8 13 4 16 -1
14 -27 -1 -17 -8 -33 -15 -35 -10 -3 -11 1 -1 19 11 24 11 24 -9 -1 -11 -14
-23 -22 -27 -18 -3 4 -14 3 -24 -2 -13 -7 -16 -19 -14 -44 5 -45 -22 -58 -50
-24 l-19 23 8 -25 c7 -23 7 -24 -10 -10 -11 9 -16 10 -11 3 4 -7 2 -13 -4 -13
-6 0 -13 6 -16 14 -3 8 -13 17 -22 21 -14 5 -15 4 -4 -6 6 -7 12 -16 12 -19 0
-10 -34 -8 -47 3 -8 5 -13 6 -13 0 0 -5 -11 -9 -24 -9 -14 0 -22 4 -20 8 3 4
1 8 -5 8 -5 0 -12 -6 -14 -12 -3 -7 -4 9 -3 35 1 30 7 51 16 57 11 7 10 9 -7
7 -12 0 -19 -5 -17 -9 3 -4 -2 -8 -10 -8 -9 0 -16 5 -16 10 0 6 -5 10 -11 10
-5 0 -8 -4 -5 -9 3 -5 -5 -8 -17 -8 -22 0 -23 4 -24 71 -1 39 -2 79 -2 89 -1
14 -10 17 -50 17 -27 0 -61 4 -75 9 -18 7 -28 6 -36 -5 -19 -22 -27 -17 -25
18 3 44 -5 68 -21 68 -8 0 -14 6 -15 13 0 10 -2 10 -6 0 -6 -16 -39 -17 -48
-3 -4 6 -1 17 5 25 10 12 10 15 0 15 -9 0 -9 4 1 17 8 9 9 14 2 10 -6 -4 -13
-3 -15 3 -2 6 -20 11 -41 12 -20 1 -37 4 -38 7 -6 48 -4 57 18 57 23 0 30 -10
14 -20 -5 -4 -11 0 -14 6 -2 7 -4 2 -3 -12 1 -21 6 -26 27 -25 19 0 25 4 21
14 -3 8 -1 12 5 8 5 -3 10 1 10 9 0 11 -6 9 -24 -8 -12 -12 -23 -17 -23 -10 0
18 50 51 68 46 14 -5 14 -4 -1 6 -14 9 -16 15 -6 26 9 11 9 14 -1 14 -9 0 -9
4 1 17 12 14 12 16 0 8 -10 -5 -12 -4 -7 4 4 6 22 10 42 7 26 -2 37 1 45 16 5
10 7 24 3 30 -5 8 -1 9 12 5 19 -7 19 -7 0 8 -22 16 -22 16 14 33 l25 11 -24
-2 c-13 -1 -26 4 -28 11 -3 6 0 12 7 12 6 0 8 -5 4 -12 -5 -8 -1 -7 10 2 16
13 20 12 32 -5 8 -10 14 -14 14 -8 0 7 -5 15 -10 18 -6 4 -8 11 -5 16 7 11 28
12 22 2 -6 -11 7 -45 17 -43 5 1 13 -4 17 -12 6 -9 9 -9 9 -1 0 7 10 10 23 8
39 -7 49 8 48 71 0 41 3 54 9 44 8 -13 10 -12 10 3 0 9 -4 17 -10 17 -11 0
-14 33 -3 43 3 4 12 2 20 -4 10 -9 13 -8 13 2 0 10 3 10 12 1 16 -16 38 4 38
35 0 13 4 22 9 18 5 -3 13 0 17 6 4 7 3 9 -4 5 -13 -8 -26 10 -17 24 3 6 12
10 18 10 7 0 6 -4 -3 -10z m86 -17 c-10 -10 -19 5 -10 18 6 11 8 11 12 0 2 -7
1 -15 -2 -18z m-339 -163 c0 -21 -4 -37 -8 -35 -4 3 -9 1 -11 -5 -2 -6 -8 -6
-18 0 -13 9 -13 10 0 10 9 0 16 10 17 21 2 21 1 21 -13 3 -10 -13 -13 -14 -12
-4 2 10 33 46 44 50 0 0 1 -18 1 -40z m-149 -145 c-3 -3 -9 2 -12 12 -6 14 -5
15 5 6 7 -7 10 -15 7 -18z m142 -375 c-9 -6 -10 -10 -3 -10 6 0 15 5 18 10 13
22 21 8 20 -37 0 -27 -4 -54 -8 -60 -5 -8 -3 -13 4 -13 19 0 1 -13 -23 -17
-17 -3 -18 -1 -9 11 6 7 8 22 4 32 -6 17 -5 18 13 4 17 -14 18 -14 6 2 -10 13
-10 17 0 21 8 4 7 6 -4 6 -10 1 -18 5 -18 10 0 5 8 11 18 14 9 2 2 4 -16 4
-22 0 -29 -3 -20 -9 10 -6 10 -10 -2 -19 -12 -9 -12 -10 4 -5 15 5 17 3 10
-11 -4 -10 -7 -33 -7 -51 0 -23 -3 -30 -10 -23 -5 5 -11 36 -11 68 -1 47 2 61
19 75 11 9 22 14 25 12 2 -3 -2 -9 -10 -14z"/>
<path d="M2039 1713 c-13 -16 -12 -17 4 -4 9 7 17 15 17 17 0 8 -8 3 -21 -13z"/>
<path d="M2090 1721 c0 -6 4 -12 8 -15 5 -3 9 1 9 9 0 8 -4 15 -9 15 -4 0 -8
-4 -8 -9z"/>
<path d="M1896 1673 c-6 -14 -5 -15 5 -6 7 7 10 15 7 18 -3 3 -9 -2 -12 -12z"/>
<path d="M1820 1665 c0 -7 30 -13 34 -7 3 4 -4 9 -15 9 -10 1 -19 0 -19 -2z"/>
<path d="M2136 1658 c3 -5 10 -6 15 -3 13 9 11 12 -6 12 -8 0 -12 -4 -9 -9z"/>
<path d="M2207 1639 c7 -7 15 -10 18 -7 3 3 -2 9 -12 12 -14 6 -15 5 -6 -5z"/>
<path d="M1870 1620 c0 -5 5 -10 11 -10 5 0 7 5 4 10 -3 6 -8 10 -11 10 -2 0
-4 -4 -4 -10z"/>
<path d="M2187 1618 c6 -7 9 -21 8 -30 -2 -10 0 -20 4 -22 3 -2 7 9 7 24 1 17
-4 31 -14 35 -11 4 -12 2 -5 -7z"/>
<path d="M2190 1541 c0 -6 4 -13 10 -16 6 -3 7 1 4 9 -7 18 -14 21 -14 7z"/>
<path d="M2215 1540 c3 -5 8 -10 11 -10 2 0 4 5 4 10 0 6 -5 10 -11 10 -5 0
-7 -4 -4 -10z"/>
<path d="M1656 1502 c-2 -4 0 -14 6 -22 8 -12 9 -12 5 2 -3 9 -1 19 6 22 9 3
9 5 0 5 -6 1 -14 -3 -17 -7z"/>
<path d="M2186 1501 c-4 -5 3 -7 14 -4 23 6 26 13 6 13 -8 0 -17 -4 -20 -9z"/>
<path d="M2153 1475 c0 -8 4 -12 9 -9 4 3 8 9 8 15 0 5 -4 9 -8 9 -5 0 -9 -7
-9 -15z"/>
<path d="M2019 1428 c-7 -23 -4 -35 7 -35 9 0 11 4 4 12 -5 7 -7 15 -3 18 3 4
3 7 0 7 -4 0 -7 -1 -8 -2z"/>
<path d="M2090 1425 c0 -7 30 -13 34 -7 3 4 -4 9 -15 9 -10 1 -19 0 -19 -2z"/>
<path d="M1570 1410 c-9 -6 -10 -10 -3 -10 6 0 15 5 18 10 8 12 4 12 -15 0z"/>
<path d="M2126 1402 c-2 -4 -1 -14 4 -22 7 -11 9 -9 7 8 -1 24 -3 26 -11 14z"/>
<path d="M1556 1373 c-6 -14 -5 -15 5 -6 7 7 10 15 7 18 -3 3 -9 -2 -12 -12z"/>
<path d="M1616 1378 c3 -5 10 -6 15 -3 13 9 11 12 -6 12 -8 0 -12 -4 -9 -9z"/>
<path d="M1530 1280 c0 -5 5 -10 10 -10 6 0 10 5 10 10 0 6 -4 10 -10 10 -5 0
-10 -4 -10 -10z"/>
<path d="M1587 1239 c7 -7 15 -10 18 -7 3 3 -2 9 -12 12 -14 6 -15 5 -6 -5z"/>
<path d="M2075 1229 c-4 -6 -5 -12 -2 -15 2 -3 7 2 10 11 7 17 1 20 -8 4z"/>
<path d="M2130 1221 c0 -7 -3 -10 -7 -8 -5 3 -9 -7 -10 -21 l-1 -27 15 28 c8
16 12 31 9 35 -3 3 -6 0 -6 -7z"/>
<path d="M1596 1207 c3 -10 9 -15 12 -12 3 3 0 11 -7 18 -10 9 -11 8 -5 -6z"/>
<path d="M2082 1204 c-7 -8 -8 -14 -3 -14 10 0 25 19 20 25 -2 1 -10 -3 -17
-11z"/>
<path d="M1546 1202 c-3 -5 1 -9 9 -9 8 0 12 4 9 9 -3 4 -7 8 -9 8 -2 0 -6 -4
-9 -8z"/>
<path d="M1716 1167 c3 -10 9 -15 12 -12 3 3 0 11 -7 18 -10 9 -11 8 -5 -6z"/>
<path d="M1656 1147 c3 -10 9 -15 12 -12 3 3 0 11 -7 18 -10 9 -11 8 -5 -6z"/>
<path d="M1690 1140 c0 -5 5 -10 11 -10 5 0 7 5 4 10 -3 6 -8 10 -11 10 -2 0
-4 -4 -4 -10z"/>
<path d="M2135 1129 c-4 -6 -5 -12 -2 -15 2 -3 7 2 10 11 7 17 1 20 -8 4z"/>
<path d="M1635 1120 c-3 -5 -1 -10 4 -10 6 0 11 5 11 10 0 6 -2 10 -4 10 -3 0
-8 -4 -11 -10z"/>
<path d="M2177 1116 c-4 -10 -1 -13 8 -9 8 3 12 9 9 14 -7 12 -11 11 -17 -5z"/>
<path d="M2210 1120 c0 -5 5 -10 10 -10 6 0 10 5 10 10 0 6 -4 10 -10 10 -5 0
-10 -4 -10 -10z"/>
<path d="M2193 1072 c0 -12 5 -22 9 -22 11 0 10 12 -2 30 -7 12 -9 10 -7 -8z"/>
<path d="M1833 1023 c4 -3 1 -13 -6 -22 -11 -14 -10 -14 5 -2 16 12 16 31 1
31 -4 0 -3 -3 0 -7z"/>
<path d="M2199 993 c-13 -17 -13 -17 6 -3 11 8 22 16 24 17 2 2 0 3 -6 3 -6 0
-17 -8 -24 -17z"/>
<path d="M1854 982 c3 -6 -1 -15 -10 -20 -9 -5 -12 -12 -7 -15 5 -3 14 3 21
13 9 14 9 21 0 26 -6 4 -8 3 -4 -4z"/>
<path d="M2170 981 c0 -10 29 -36 34 -30 1 2 -6 12 -16 22 -10 9 -18 13 -18 8z"/>
<path d="M2139 948 c-5 -18 -6 -38 -1 -34 7 8 12 36 6 36 -2 0 -4 -1 -5 -2z"/>
<path d="M2120 880 c-13 -8 -12 -10 3 -10 9 0 17 5 17 10 0 12 -1 12 -20 0z"/>
<path d="M1946 843 c-6 -14 -5 -15 5 -6 7 7 10 15 7 18 -3 3 -9 -2 -12 -12z"/>
<path d="M2115 840 c-3 -6 1 -7 9 -4 18 7 21 14 7 14 -6 0 -13 -4 -16 -10z"/>
<path d="M581 1917 c-6 -8 -8 -17 -4 -20 3 -4 1 -7 -4 -7 -6 0 -14 6 -16 13
-4 10 -6 10 -6 0 -1 -8 -14 -13 -32 -13 -21 0 -28 4 -23 13 6 10 4 10 -7 0 -7
-7 -21 -13 -31 -13 -17 0 -22 -18 -21 -75 0 -6 -8 -12 -19 -12 -10 -1 -16 2
-13 7 3 4 -2 10 -10 13 -9 4 -12 1 -8 -9 5 -14 -13 -21 -19 -6 -1 4 -11 0 -20
-10 -10 -10 -13 -18 -8 -18 12 0 13 -40 2 -55 -9 -13 -62 -15 -62 -3 0 5 -6 3
-14 -4 -8 -8 -11 -26 -8 -46 2 -19 -1 -39 -9 -49 -10 -12 -10 -14 -1 -9 9 5
12 -6 12 -46 l0 -53 43 2 c23 1 47 2 54 2 8 1 13 29 15 88 2 63 7 88 17 91 8
3 11 0 7 -6 -10 -16 21 -22 35 -6 8 10 15 11 25 4 10 -9 11 -6 6 12 -5 21 -4
22 13 8 15 -12 17 -12 10 -1 -6 11 -4 13 7 9 8 -4 15 0 15 7 0 10 -5 11 -17 5
-9 -5 -22 -5 -31 1 -7 5 -9 9 -3 9 6 0 10 10 9 23 -2 17 2 23 16 23 12 0 18
-5 15 -13 -3 -7 -1 -15 5 -18 5 -4 8 -1 7 5 -2 7 8 16 21 21 21 8 23 7 18 -13
-6 -22 -6 -22 14 2 12 14 19 18 16 8 -5 -14 -3 -15 21 -2 24 12 27 12 30 -1 3
-13 6 -13 20 2 16 15 17 15 20 -3 2 -10 7 -23 12 -27 4 -5 5 4 2 19 -4 24 -3
26 9 14 16 -14 18 -48 4 -70 -5 -9 -4 -11 3 -6 7 4 12 3 12 -3 0 -5 18 -9 41
-8 22 2 42 0 44 -3 1 -3 0 -26 -4 -52 -5 -31 -4 -49 3 -51 7 -3 6 -9 -3 -18
-12 -12 -13 -12 -6 0 6 10 4 12 -5 6 -10 -6 -10 -11 4 -20 15 -12 15 -13 -1
-20 -10 -5 -21 -7 -25 -7 -5 1 -8 -3 -8 -8 0 -5 7 -10 15 -10 8 0 15 5 15 10
0 6 4 10 9 10 6 0 6 -12 1 -30 -5 -19 -5 -30 1 -30 6 0 7 -4 4 -10 -3 -5 -22
-10 -41 -10 -19 0 -33 4 -29 9 3 5 2 12 -3 15 -9 5 -11 1 -14 -54 -4 -45 -13
-55 -56 -56 -32 -1 -33 0 -17 13 11 7 14 13 8 13 -7 0 -19 -7 -28 -17 -13 -13
-19 -13 -25 -3 -6 10 -9 10 -12 -1 -5 -12 -9 -12 -28 -1 -12 8 -19 9 -15 3 4
-7 -11 -11 -43 -11 -56 0 -62 -8 -54 -72 5 -41 5 -41 80 -38 24 1 50 -4 59
-12 12 -9 15 -10 9 0 -4 7 -2 12 5 12 6 0 9 -8 6 -19 -5 -19 15 -23 30 -6 4 4
2 5 -4 1 -8 -4 -13 -1 -13 7 0 9 10 15 25 15 28 0 41 -13 25 -23 -5 -3 -10 -1
-10 6 0 7 -3 10 -6 6 -3 -3 -3 -11 1 -17 5 -8 11 -8 21 1 7 6 11 15 8 20 -3 5
2 9 10 9 20 0 20 -14 1 -30 -8 -7 -15 -18 -15 -24 0 -6 5 -3 11 7 13 23 25 22
25 -2 0 -11 -4 -17 -8 -15 -4 3 -8 1 -8 -4 0 -12 49 -34 61 -26 5 3 19 2 30
-1 17 -6 19 -9 8 -16 -19 -12 -32 -11 -24 1 4 6 -1 7 -11 3 -11 -4 -13 -8 -6
-11 7 -2 9 -8 6 -14 -4 -6 2 -6 14 1 30 16 32 14 22 -19 -6 -21 -5 -30 3 -31
7 0 -1 -7 -18 -14 -16 -7 -33 -11 -36 -9 -4 2 -13 -4 -20 -14 -12 -15 -12 -16
1 -6 8 6 25 10 38 9 12 -1 22 2 22 7 0 4 4 8 9 8 13 0 0 -50 -13 -51 -6 0 -2
-4 9 -9 11 -5 14 -9 7 -9 -7 -1 -10 -5 -7 -11 12 -20 14 -50 3 -56 -7 -4 -8
-2 -4 4 4 7 3 12 -3 12 -5 0 -11 -6 -14 -12 -3 -10 -8 -9 -22 2 -11 9 -16 10
-11 3 5 -9 1 -13 -12 -13 -16 0 -19 -7 -18 -42 l2 -43 -118 1 c-64 0 -121 4
-125 8 -4 5 2 6 15 3 30 -7 28 1 -4 13 -14 6 -22 14 -19 20 3 5 8 18 10 28 3
15 -2 17 -26 14 -19 -3 -29 0 -29 9 0 10 -3 10 -12 1 -17 -17 -28 -15 -28 4 0
9 5 12 13 8 9 -6 9 -4 0 7 -8 8 -13 40 -13 81 l0 68 -55 0 -55 0 0 -101 c0
-83 2 -100 14 -96 8 3 20 -1 26 -8 7 -8 16 -13 20 -10 5 3 11 0 13 -5 3 -6 4
-5 3 2 -2 7 -9 12 -15 11 -6 -2 -11 2 -11 7 0 12 10 13 29 1 9 -6 12 -20 9
-40 -3 -18 -1 -34 4 -37 5 -3 5 -11 1 -17 -5 -9 -3 -9 8 -1 8 5 28 10 44 9 28
-1 30 -3 31 -44 1 -27 7 -48 19 -59 12 -11 15 -12 8 -2 -10 13 6 15 128 13
l139 -1 -5 44 c-4 36 -1 44 13 45 9 0 27 2 39 3 12 1 20 -1 17 -6 -3 -4 2 -5
10 -2 9 3 12 12 9 21 -5 12 -3 14 7 8 9 -6 11 -4 5 5 -15 24 -14 60 2 60 10 0
13 -7 9 -22 -4 -17 -2 -16 6 4 8 20 18 26 37 25 l26 -2 0 139 c0 114 -3 140
-15 144 -8 3 -18 10 -22 16 -5 7 -8 7 -8 -1 0 -16 -36 -17 -45 -3 -4 6 -1 17
5 25 8 10 9 15 2 15 -6 0 -9 9 -7 20 3 15 -2 20 -16 20 -11 0 -18 4 -15 9 8
13 -18 21 -46 14 -16 -3 -19 -2 -9 5 9 7 10 12 2 16 -20 13 -1 26 31 22 18 -2
41 0 53 4 11 5 15 9 9 9 -6 1 -10 17 -9 39 1 35 3 37 36 37 19 0 40 4 47 8 6
5 17 5 22 2 6 -3 10 -1 10 4 0 6 -6 11 -12 11 -9 0 -14 20 -15 60 -1 46 2 60
13 60 8 0 14 -5 14 -11 0 -5 -4 -8 -8 -5 -5 3 -9 -1 -9 -9 0 -11 4 -12 13 -4
14 11 34 4 34 -11 0 -5 -7 -7 -15 -4 -8 4 -15 1 -15 -6 0 -6 -4 -8 -10 -5 -6
4 -7 -1 -3 -11 5 -15 7 -15 15 0 5 9 13 14 18 11 18 -11 21 17 4 36 -16 18
-16 19 2 20 11 0 14 3 6 6 -10 4 -10 8 0 21 12 15 11 15 -4 4 -17 -13 -18 -7
-9 48 1 3 5 -2 10 -10 7 -9 9 -2 7 23 -2 21 -7 41 -11 45 -4 4 -4 -4 0 -18 7
-22 6 -23 -8 -11 -9 7 -14 18 -10 24 3 6 1 7 -5 3 -7 -4 -12 -2 -12 5 0 7 -3
9 -7 6 -3 -4 4 -18 17 -32 17 -19 21 -28 13 -36 -6 -6 -9 -19 -6 -28 4 -14 3
-14 -6 -1 -6 8 -8 22 -5 32 2 9 1 19 -4 21 -13 9 -9 -57 5 -71 20 -20 16 -34
-5 -23 -14 8 -18 21 -17 58 1 26 -2 55 -6 64 -5 9 -3 22 4 29 10 12 9 12 -4 2
-10 -7 -27 -15 -39 -17 -17 -3 -21 -1 -16 13 6 16 5 16 -7 0 -8 -10 -17 -15
-20 -11 -4 3 -2 12 4 20 9 10 8 13 -1 13 -9 0 -9 4 1 17 10 11 10 14 2 9 -8
-4 -13 -1 -13 9 0 10 5 13 12 9 7 -4 8 -3 4 5 -5 7 -25 10 -52 8 -24 -2 -45
-1 -45 2 -7 30 -5 50 5 44 6 -4 6 0 -1 9 -7 8 -10 18 -6 21 3 4 -13 7 -36 7
-26 0 -40 4 -36 10 4 6 -4 6 -19 -1 -33 -15 -63 -5 -46 16 7 8 10 15 7 15 -2
0 -10 -6 -16 -13z m-151 -221 c0 -3 -4 -8 -10 -11 -5 -3 -10 -1 -10 4 0 6 5
11 10 11 6 0 10 -2 10 -4z m340 -416 c0 -5 -4 -10 -10 -10 -5 0 -10 5 -10 10
0 6 5 10 10 10 6 0 10 -4 10 -10z"/>
<path d="M744 1838 l-19 -23 23 19 c21 18 27 26 19 26 -2 0 -12 -10 -23 -22z"/>
<path d="M1826 1842 c-3 -5 1 -9 9 -9 8 0 15 4 15 9 0 4 -4 8 -9 8 -6 0 -12
-4 -15 -8z"/>
<path d="M2230 1837 c0 -2 6 -10 14 -16 11 -9 16 -9 22 1 4 7 4 10 -1 6 -4 -4
-14 -3 -22 3 -7 6 -13 9 -13 6z"/>
<path d="M1733 1775 c0 -8 4 -12 9 -9 5 3 6 10 3 15 -9 13 -12 11 -12 -6z"/>
<path d="M1297 1761 c-4 -17 -3 -21 5 -13 5 5 8 16 6 23 -3 8 -7 3 -11 -10z"/>
<path d="M305 1759 c-3 -4 2 -6 10 -5 21 3 28 13 10 13 -9 0 -18 -4 -20 -8z"/>
<path d="M599 1768 c-6 -21 -5 -38 1 -38 5 0 8 9 7 20 -1 17 -5 26 -8 18z"/>
<path d="M875 1760 c-3 -5 -3 -10 2 -10 4 0 1 -5 -7 -11 -12 -8 -12 -10 -1 -7
8 2 15 12 17 21 3 19 -2 22 -11 7z"/>
<path d="M1215 1760 c3 -5 8 -10 11 -10 2 0 4 5 4 10 0 6 -5 10 -11 10 -5 0
-7 -4 -4 -10z"/>
<path d="M1675 1761 c-3 -5 -2 -12 3 -15 5 -3 9 1 9 9 0 17 -3 19 -12 6z"/>
<path d="M655 1743 c3 -3 0 -11 -5 -18 -7 -8 -5 -12 4 -12 14 0 16 22 3 32 -4
3 -5 2 -2 -2z"/>
<path d="M1399 1748 c-5 -18 -6 -38 -1 -34 7 8 12 36 6 36 -2 0 -4 -1 -5 -2z"/>
<path d="M1217 1721 c-4 -17 -3 -21 5 -13 5 5 8 16 6 23 -3 8 -7 3 -11 -10z"/>
<path d="M1315 1720 c3 -5 8 -10 11 -10 2 0 4 5 4 10 0 6 -5 10 -11 10 -5 0
-7 -4 -4 -10z"/>
<path d="M1347 1719 c7 -7 15 -10 18 -7 3 3 -2 9 -12 12 -14 6 -15 5 -6 -5z"/>
<path d="M1650 1718 c0 -11 12 -10 30 2 12 7 10 9 -8 7 -12 0 -22 -5 -22 -9z"/>
<path d="M525 1700 c-3 -6 1 -7 9 -4 18 7 21 14 7 14 -6 0 -13 -4 -16 -10z"/>
<path d="M1295 1700 c-3 -5 -1 -10 4 -10 6 0 11 5 11 10 0 6 -2 10 -4 10 -3 0
-8 -4 -11 -10z"/>
<path d="M775 1680 c-3 -5 -1 -10 4 -10 6 0 11 5 11 10 0 6 -2 10 -4 10 -3 0
-8 -4 -11 -10z"/>
<path d="M1140 1680 c-9 -6 -10 -10 -3 -10 6 0 15 5 18 10 8 12 4 12 -15 0z"/>
<path d="M1453 1675 c0 -7 8 -10 19 -7 10 2 18 6 18 7 0 1 -8 5 -18 7 -11 3
-19 0 -19 -7z"/>
<path d="M380 1666 c0 -2 7 -7 16 -10 8 -3 12 -2 9 4 -6 10 -25 14 -25 6z"/>
<path d="M757 1653 c6 -16 5 -17 -13 -3 -17 14 -18 14 -6 -2 8 -9 11 -21 8
-27 -7 -11 20 -8 31 4 4 4 2 5 -6 0 -10 -6 -12 -2 -7 13 4 11 2 23 -3 27 -7 4
-8 -1 -4 -12z"/>
<path d="M1100 1639 c0 -5 5 -7 10 -4 6 3 10 8 10 11 0 2 -4 4 -10 4 -5 0 -10
-5 -10 -11z"/>
<path d="M1455 1589 c-4 -6 -5 -12 -2 -15 2 -3 7 2 10 11 7 17 1 20 -8 4z"/>
<path d="M2359 1573 c-13 -16 -12 -17 4 -4 9 7 17 15 17 17 0 8 -8 3 -21 -13z"/>
<path d="M1473 1565 c0 -8 4 -15 9 -15 4 0 8 4 8 9 0 6 -4 12 -8 15 -5 3 -9
-1 -9 -9z"/>
<path d="M696 1502 c-3 -5 1 -9 9 -9 8 0 12 4 9 9 -3 4 -7 8 -9 8 -2 0 -6 -4
-9 -8z"/>
<path d="M1470 1500 c0 -5 5 -10 10 -10 6 0 10 5 10 10 0 6 -4 10 -10 10 -5 0
-10 -4 -10 -10z"/>
<path d="M1430 1478 c0 -6 6 -8 14 -5 8 3 17 2 20 -4 2 -5 3 -4 2 2 -3 15 -36
21 -36 7z"/>
<path d="M975 1471 c-3 -5 -2 -12 3 -15 5 -3 9 1 9 9 0 17 -3 19 -12 6z"/>
<path d="M675 1461 c-3 -5 -2 -12 3 -15 5 -3 9 1 9 9 0 17 -3 19 -12 6z"/>
<path d="M1310 1440 c0 -5 5 -10 11 -10 5 0 7 5 4 10 -3 6 -8 10 -11 10 -2 0
-4 -4 -4 -10z"/>
<path d="M1355 1440 c-4 -6 -1 -9 7 -8 7 2 12 -3 10 -10 -1 -8 2 -11 8 -7 8 5
7 11 -1 21 -14 17 -16 17 -24 4z"/>
<path d="M670 1414 c8 -10 15 -20 16 -22 1 -2 4 1 7 5 3 5 -4 15 -16 23 -21
12 -21 12 -7 -6z"/>
<path d="M595 1410 c-4 -6 -10 -8 -15 -5 -5 3 -11 1 -14 -4 -8 -13 22 -7 36 7
7 7 9 12 6 12 -4 0 -10 -5 -13 -10z"/>
<path d="M850 1410 c-9 -6 -10 -10 -3 -10 6 0 15 5 18 10 8 12 4 12 -15 0z"/>
<path d="M2288 1408 c-7 -17 15 -19 29 -3 4 4 3 5 -4 2 -6 -4 -13 -2 -15 5 -3
8 -6 6 -10 -4z"/>
<path d="M656 1397 c3 -10 9 -15 12 -12 3 3 0 11 -7 18 -10 9 -11 8 -5 -6z"/>
<path d="M1265 1400 c-3 -6 1 -7 9 -4 18 7 21 14 7 14 -6 0 -13 -4 -16 -10z"/>
<path d="M1313 1395 c0 -8 4 -12 9 -9 4 3 8 9 8 15 0 5 -4 9 -8 9 -5 0 -9 -7
-9 -15z"/>
<path d="M1340 1391 c0 -6 4 -13 10 -16 6 -3 7 1 4 9 -7 18 -14 21 -14 7z"/>
<path d="M830 1381 c0 -5 8 -15 18 -22 15 -12 16 -12 5 2 -7 9 -10 19 -6 22 3
4 1 7 -5 7 -7 0 -12 -4 -12 -9z"/>
<path d="M860 1386 c0 -2 8 -10 18 -17 15 -13 16 -12 3 4 -13 16 -21 21 -21
13z"/>
<path d="M740 1321 c8 -5 17 -8 21 -5 4 2 10 0 14 -6 3 -5 14 -10 23 -9 19 0
-20 20 -53 26 -16 2 -17 1 -5 -6z"/>
<path d="M828 1303 c7 -3 16 -2 19 1 4 3 -2 6 -13 5 -11 0 -14 -3 -6 -6z"/>
<path d="M2286 1298 c3 -5 10 -6 15 -3 13 9 11 12 -6 12 -8 0 -12 -4 -9 -9z"/>
<path d="M2250 1280 c0 -5 5 -10 10 -10 6 0 10 5 10 10 0 6 -4 10 -10 10 -5 0
-10 -4 -10 -10z"/>
<path d="M833 1255 c0 -8 4 -12 9 -9 5 3 6 10 3 15 -9 13 -12 11 -12 -6z"/>
<path d="M2279 1268 c-6 -21 -5 -38 1 -38 5 0 8 9 7 20 -1 17 -5 26 -8 18z"/>
<path d="M916 1207 c3 -10 9 -15 12 -12 3 3 0 11 -7 18 -10 9 -11 8 -5 -6z"/>
<path d="M1297 1213 c-10 -9 -9 -23 1 -23 5 0 9 7 9 15 0 17 -1 18 -10 8z"/>
<path d="M826 1202 c-3 -5 1 -9 9 -9 8 0 12 4 9 9 -3 4 -7 8 -9 8 -2 0 -6 -4
-9 -8z"/>
<path d="M1335 1180 c3 -5 8 -10 11 -10 2 0 4 5 4 10 0 6 -5 10 -11 10 -5 0
-7 -4 -4 -10z"/>
<path d="M653 1165 c0 -8 4 -12 9 -9 5 3 6 10 3 15 -9 13 -12 11 -12 -6z"/>
<path d="M910 1142 c0 -5 7 -16 16 -23 14 -12 14 -14 -3 -20 -16 -7 -16 -8 -1
-8 26 -1 28 12 7 38 -10 13 -19 19 -19 13z"/>
<path d="M940 1140 c8 -5 20 -10 25 -10 6 0 3 5 -5 10 -8 5 -19 10 -25 10 -5
0 -3 -5 5 -10z"/>
<path d="M1483 1122 c-8 -14 -8 -19 1 -19 7 0 13 9 13 19 1 10 1 18 0 18 -1 0
-7 -8 -14 -18z"/>
<path d="M1010 1121 c0 -6 4 -13 10 -16 6 -3 7 1 4 9 -7 18 -14 21 -14 7z"/>
<path d="M1440 1120 c-9 -6 -10 -10 -3 -10 6 0 15 5 18 10 8 12 4 12 -15 0z"/>
<path d="M720 1100 c-9 -6 -10 -10 -3 -10 6 0 15 5 18 10 8 12 4 12 -15 0z"/>
<path d="M735 1081 c-3 -5 -2 -12 3 -15 5 -3 9 1 9 9 0 17 -3 19 -12 6z"/>
<path d="M2366 1082 c-3 -5 1 -9 9 -9 8 0 12 4 9 9 -3 4 -7 8 -9 8 -2 0 -6 -4
-9 -8z"/>
<path d="M914 1069 c-4 -8 -3 -10 4 -5 14 8 12 -20 -2 -43 -6 -10 -5 -12 2 -7
11 7 17 -6 13 -28 -1 -4 4 -15 11 -23 11 -14 10 -15 -11 -8 -21 6 -22 5 -10
-7 10 -11 18 -13 31 -5 17 11 21 47 4 47 -5 0 -6 3 -3 7 4 3 0 18 -9 31 -15
23 -15 25 -1 19 9 -3 19 -1 23 6 4 7 3 9 -1 4 -5 -4 -16 0 -26 9 -13 12 -19
12 -25 3z m40 -95 c3 -8 2 -12 -4 -9 -6 3 -10 10 -10 16 0 14 7 11 14 -7z"/>
<path d="M2355 1051 c-3 -5 -2 -12 3 -15 5 -3 9 1 9 9 0 17 -3 19 -12 6z"/>
<path d="M235 1020 c3 -5 8 -10 11 -10 2 0 4 5 4 10 0 6 -5 10 -11 10 -5 0 -7
-4 -4 -10z"/>
<path d="M390 1020 c0 -5 5 -10 11 -10 5 0 7 5 4 10 -3 6 -8 10 -11 10 -2 0
-4 -4 -4 -10z"/>
<path d="M1140 1020 c-8 -5 -10 -10 -5 -10 6 0 17 5 25 10 8 5 11 10 5 10 -5
0 -17 -5 -25 -10z"/>
<path d="M430 1000 c0 -5 5 -10 11 -10 5 0 7 5 4 10 -3 6 -8 10 -11 10 -2 0
-4 -4 -4 -10z"/>
<path d="M1456 1002 c-3 -5 1 -9 9 -9 8 0 12 4 9 9 -3 4 -7 8 -9 8 -2 0 -6 -4
-9 -8z"/>
<path d="M391 987 c-8 -10 -7 -14 2 -14 8 0 14 6 14 14 0 7 -1 13 -2 13 -2 0
-8 -6 -14 -13z"/>
<path d="M1111 973 c7 -12 15 -20 18 -17 3 2 -3 12 -13 22 -17 16 -18 16 -5
-5z"/>
<path d="M436 958 c3 -5 10 -6 15 -3 13 9 11 12 -6 12 -8 0 -12 -4 -9 -9z"/>
<path d="M759 968 c-8 -27 -5 -36 9 -30 10 4 12 7 4 10 -7 2 -10 8 -6 13 3 5
3 9 0 9 -3 0 -6 -1 -7 -2z"/>
<path d="M1464 955 c-18 -15 -18 -15 0 -8 13 4 17 3 12 -5 -5 -8 -1 -10 10 -5
11 4 13 8 6 11 -7 2 -10 8 -6 13 8 13 1 11 -22 -6z"/>
<path d="M1146 938 c3 -4 15 -13 27 -18 20 -10 20 -10 5 3 -10 8 -16 16 -13
19 3 2 -2 5 -10 5 -8 0 -12 -4 -9 -9z"/>
<path d="M428 933 c7 -3 16 -2 19 1 4 3 -2 6 -13 5 -11 0 -14 -3 -6 -6z"/>
<path d="M667 919 c7 -9 10 -19 6 -22 -3 -4 -1 -7 5 -7 17 0 15 16 -5 31 -16
12 -17 12 -6 -2z"/>
<path d="M917 919 c7 -7 15 -10 18 -7 3 3 -2 9 -12 12 -14 6 -15 5 -6 -5z"/>
<path d="M1259 908 c-6 -21 -5 -38 1 -38 5 0 8 9 7 20 -1 17 -5 26 -8 18z"/>
<path d="M909 883 c-13 -16 -12 -17 4 -4 9 7 17 15 17 17 0 8 -8 3 -21 -13z"/>
<path d="M1630 889 c0 -5 5 -7 10 -4 6 3 10 8 10 11 0 2 -4 4 -10 4 -5 0 -10
-5 -10 -11z"/>
<path d="M506 878 c3 -5 10 -6 15 -3 13 9 11 12 -6 12 -8 0 -12 -4 -9 -9z"/>
<path d="M554 873 c2 -9 8 -18 15 -19 6 -1 7 0 1 3 -5 2 -8 9 -5 13 3 5 1 11
-4 14 -5 4 -8 -2 -7 -11z"/>
<path d="M655 870 c6 -10 1 -12 -18 -8 -15 3 -24 1 -21 -3 7 -12 41 -11 49 0
3 5 0 13 -6 17 -8 5 -9 3 -4 -6z"/>
<path d="M866 865 c-11 -8 -15 -15 -9 -15 6 0 16 7 23 15 16 19 11 19 -14 0z"/>
<path d="M275 860 c3 -5 8 -10 11 -10 2 0 4 5 4 10 0 6 -5 10 -11 10 -5 0 -7
-4 -4 -10z"/>
<path d="M497 859 c7 -7 15 -10 18 -7 3 3 -2 9 -12 12 -14 6 -15 5 -6 -5z"/>
<path d="M1276 853 c-6 -14 -5 -15 5 -6 7 7 10 15 7 18 -3 3 -9 -2 -12 -12z"/>
<path d="M1550 860 c0 -5 5 -10 10 -10 6 0 10 5 10 10 0 6 -4 10 -10 10 -5 0
-10 -4 -10 -10z"/>
<path d="M675 850 c-3 -6 1 -7 9 -4 18 7 21 14 7 14 -6 0 -13 -4 -16 -10z"/>
<path d="M1235 850 c-3 -6 1 -7 9 -4 18 7 21 14 7 14 -6 0 -13 -4 -16 -10z"/>
<path d="M530 839 c0 -5 5 -7 10 -4 6 3 10 8 10 11 0 2 -4 4 -10 4 -5 0 -10
-5 -10 -11z"/>
<path d="M590 846 c0 -2 7 -7 16 -10 8 -3 12 -2 9 4 -6 10 -25 14 -25 6z"/>
<path d="M890 839 c0 -5 5 -7 10 -4 6 3 10 8 10 11 0 2 -4 4 -10 4 -5 0 -10
-5 -10 -11z"/>
<path d="M1395 840 c-3 -6 1 -7 9 -4 18 7 21 14 7 14 -6 0 -13 -4 -16 -10z"/>
<path d="M1730 836 c4 -4 16 -4 26 2 16 9 14 10 -8 9 -15 -1 -23 -6 -18 -11z"/>
<path d="M2270 840 c0 -5 5 -10 10 -10 6 0 10 5 10 10 0 6 -4 10 -10 10 -5 0
-10 -4 -10 -10z"/>
<path d="M1016 827 c3 -10 9 -15 12 -12 3 3 0 11 -7 18 -10 9 -11 8 -5 -6z"/>
<path d="M1573 825 c0 -8 4 -12 9 -9 5 3 6 10 3 15 -9 13 -12 11 -12 -6z"/>
<path d="M755 789 c-4 -6 -5 -12 -2 -15 2 -3 7 2 10 11 7 17 1 20 -8 4z"/>
<path d="M1114 786 c1 -8 5 -18 8 -22 4 -3 5 1 4 10 -1 8 -5 18 -8 22 -4 3 -5
-1 -4 -10z"/>
<path d="M380 786 c0 -2 9 -6 20 -9 11 -3 18 -1 14 4 -5 9 -34 13 -34 5z"/>
<path d="M535 689 c-4 -6 -5 -12 -2 -15 2 -3 7 2 10 11 7 17 1 20 -8 4z"/>
<path d="M2010 686 c0 -2 7 -7 16 -10 8 -3 12 -2 9 4 -6 10 -25 14 -25 6z"/>
<path d="M1990 659 c0 -5 5 -7 10 -4 6 3 10 8 10 11 0 2 -4 4 -10 4 -5 0 -10
-5 -10 -11z"/>
</g>
</svg>
